<svg width="34" height="32" viewBox="0 0 34 32" fill="none" xmlns="http://www.w3.org/2000/svg">
<path d="M9.6 28.84V14.4H12.16C12.3467 14.4 12.5333 14.42 12.72 14.46C12.9067 14.5 13.0933 14.5467 13.28 14.6L24.36 18.72C24.7333 18.8533 25.0333 19.0933 25.26 19.44C25.4867 19.7867 25.6 20.1467 25.6 20.52C25.6 21.08 25.4067 21.5333 25.02 21.88C24.6333 22.2267 24.1867 22.4 23.68 22.4H19.48C19.3467 22.4 19.2467 22.3933 19.18 22.38C19.1133 22.3667 19.0267 22.3333 18.92 22.28L16.36 21.28L15.84 22.84L18.92 23.92C18.9733 23.9467 19.0533 23.9667 19.16 23.98C19.2667 23.9933 19.36 24 19.44 24H30.4C31.2533 24 32 24.3067 32.64 24.92C33.28 25.5333 33.6 26.2933 33.6 27.2L20.84 32L9.6 28.84ZM0 32V14.4H6.4V32H0ZM24 17.6L17.36 11.12C16.5333 10.32 15.8333 9.43333 15.26 8.46C14.6867 7.48667 14.4 6.42667 14.4 5.28C14.4 3.81333 14.9133 2.56667 15.94 1.54C16.9667 0.513333 18.2133 0 19.68 0C20.5333 0 21.3333 0.18 22.08 0.54C22.8267 0.9 23.4667 1.38667 24 2C24.5333 1.38667 25.1733 0.9 25.92 0.54C26.6667 0.18 27.4667 0 28.32 0C29.7867 0 31.0333 0.513333 32.06 1.54C33.0867 2.56667 33.6 3.81333 33.6 5.28C33.6 6.42667 33.32 7.48667 32.76 8.46C32.2 9.43333 31.5067 10.32 30.68 11.12L24 17.6Z" fill="#3BD94B"/>
</svg>
