<svg width="50" height="48" viewBox="0 0 50 48" fill="none" xmlns="http://www.w3.org/2000/svg">
<path d="M1.03775 15.9277C1.01689 16.1861 1.14207 16.3749 1.28811 16.5737C1.39243 16.7227 1.51761 16.8916 1.53848 17.0606C1.56977 17.3388 1.72625 17.4084 1.96618 17.4581C2.23741 17.5177 2.45648 17.6568 2.5295 17.935C2.60253 18.1934 2.74857 18.263 3.0198 18.1636C3.55182 17.9748 4.08385 17.7661 4.61587 17.5674C4.60544 17.627 4.58457 17.7164 4.57414 17.8059C4.53242 18.1636 4.46982 18.5213 4.48026 18.8691C4.49069 19.2368 4.73062 19.4654 5.0853 19.4654C5.7738 19.4654 6.45187 19.4554 7.14037 19.4356C7.47419 19.4256 7.76629 19.3064 7.99579 19.0579C8.02708 19.0281 8.06881 18.9784 8.1001 18.9884C8.50695 19.0579 8.72601 18.7896 8.97638 18.5611C9.25804 18.3027 9.58143 18.1239 9.9987 18.1338C10.2595 18.1437 10.5307 18.0642 10.8332 18.0245C10.8332 18.0245 10.875 18.0742 10.9063 18.1338C11.0523 18.3524 11.1149 18.5512 10.9376 18.7996C10.8541 18.9288 10.8958 19.1374 10.8854 19.3163C10.875 19.4455 10.9063 19.5946 10.8645 19.7138C10.802 19.9026 10.7915 20.0715 10.875 20.2603C11.1045 20.7373 11.4592 21.1149 11.8764 21.4429C12.1059 21.6217 12.3563 21.6814 12.6484 21.6317C12.7423 21.6217 12.857 21.6714 12.9509 21.7211C13.0761 21.7907 13.17 21.9298 13.2952 21.9596C13.4829 22.0093 13.6081 22.0888 13.7229 22.218C13.8793 22.3968 14.0775 22.5161 14.3279 22.4763C14.5157 22.4465 14.5991 22.4962 14.6513 22.6751C14.766 23.0527 15.006 23.162 15.4128 23.0726C15.5276 23.0427 15.684 23.0726 15.7988 23.1222C16.0596 23.2316 16.2995 23.3806 16.5499 23.4899C16.7168 23.5595 16.8003 23.6588 16.8211 23.8178C16.8524 24.0464 16.8733 24.265 16.8733 24.4936C16.8628 24.8016 16.9046 25.1196 16.6229 25.368C16.5812 25.3979 16.5603 25.4774 16.5603 25.5271C16.5916 25.7855 16.6438 26.0339 16.8628 26.2127C17.228 26.5108 17.6557 26.6897 18.1355 26.7294C18.3442 26.7493 18.5632 26.7294 18.7823 26.7394C19.064 26.7494 19.1579 26.8785 19.0848 27.1269C19.064 27.1865 19.0431 27.2561 19.0118 27.3157C18.7406 27.8424 18.9075 28.1902 19.4812 28.3591C19.596 28.3988 19.7629 28.5181 19.7629 28.5975C19.7838 29.0149 19.9715 29.462 19.6273 29.8497C19.5856 29.8893 19.5438 29.939 19.5334 29.9988C19.5125 30.1081 19.4708 30.2472 19.5125 30.3365C19.5647 30.4459 19.5647 30.5054 19.4917 30.595C19.3352 30.7937 19.2309 30.9925 19.21 31.2508C19.1787 31.7775 19.1057 32.3042 19.064 32.8308C19.0431 33.0892 19.0327 33.3575 19.0431 33.6158C19.0535 33.8344 19.1787 34.0233 19.4082 34.073C19.7212 34.1326 20.0446 34.1724 20.3575 34.1724C21.2025 34.1724 21.8284 34.8877 21.6824 35.6827C21.6406 35.8915 21.6511 36.1199 21.6615 36.3387C21.6719 36.6169 21.7658 36.6764 22.0579 36.6267C22.1935 36.607 22.3291 36.5671 22.4647 36.5573C22.7986 36.5374 23.0385 36.7361 22.9968 37.0541C22.955 37.4119 22.882 37.7795 22.7568 38.1173C22.6212 38.495 22.5899 38.485 22.9342 38.7136C23.2784 38.9422 23.414 39.2602 23.3619 39.6476C23.3306 39.9061 23.2576 40.1545 23.2471 40.4128C23.2367 40.8103 22.955 41.019 22.6421 41.1183C21.7971 41.3668 21.1503 41.8737 20.5244 42.4202C20.1384 42.758 19.8046 43.1357 19.4499 43.5033C19.2517 43.702 19.2413 43.8313 19.3978 44.0697C19.4395 44.1392 19.4812 44.2088 19.5334 44.2684C19.7838 44.5766 20.1071 44.8348 20.0028 45.3019C19.9611 45.4906 20.1071 45.5801 20.3054 45.5205C20.3888 45.5006 20.4618 45.4608 20.5349 45.4111C20.7018 45.3018 20.8374 45.3614 20.9417 45.4806C21.3485 45.9676 21.8075 46.3849 22.3187 46.7526C22.5482 46.9117 22.7255 47.1203 22.7673 47.3886C22.7986 47.6171 22.9446 47.637 23.1324 47.6171C23.3097 47.5973 23.4766 47.5476 23.6644 47.5078C23.7792 47.7364 23.9565 47.7662 24.1234 47.5674C24.1964 47.478 24.2799 47.3786 24.3007 47.2693C24.4155 46.8222 24.6346 46.4545 24.9893 46.1365C25.3334 45.8284 25.636 45.4806 25.9698 45.1328C25.9907 45.1527 26.0324 45.1726 26.0636 45.2024C26.3244 45.4608 26.6269 45.4408 26.8253 45.1427C26.94 44.9638 27.0546 44.7849 27.1486 44.5862C27.3155 44.2483 27.5555 43.9999 27.8684 43.7813C28.0875 43.6222 28.2752 43.4235 28.4316 43.2149C28.682 42.8671 28.7655 42.4398 28.8176 42.0324C28.8698 41.6746 28.8906 41.3069 28.9324 40.9493C28.9429 40.8102 28.9741 40.671 28.9951 40.5418C29.0681 40.0946 29.4645 39.7468 29.4018 39.2499C29.5061 39.2996 29.5791 39.3493 29.6626 39.3891C29.8087 39.4487 29.9234 39.4287 29.9964 39.2698C30.1529 38.9121 30.4867 38.7432 30.8415 38.6438C31.1232 38.5543 31.3631 38.435 31.5926 38.2562C31.8534 38.0476 32.1246 37.8488 32.5106 37.8687C33.0738 37.8886 33.5954 37.7594 33.9919 37.342C34.3362 36.9843 34.7013 36.9247 35.1394 37.1631C35.421 37.3122 35.7339 37.3321 36.0574 37.2923C36.6833 37.203 37.2258 36.9445 37.7369 36.6068C38.1334 36.3385 38.488 36.0303 38.6967 35.5932C38.8323 35.305 39.0409 35.0764 39.3643 34.9572C39.4686 34.9175 39.573 34.8777 39.6459 34.8081C40.0527 34.3411 40.4597 33.8641 40.8561 33.3773C41.0542 33.1289 40.9604 32.8307 40.9813 32.5524C40.9917 32.294 41.0229 32.0159 41.2628 31.8668C41.6801 31.5985 41.8887 31.2109 42.0557 30.7936C42.1288 30.6247 42.1288 30.426 42.1601 30.2471C42.1495 30.2172 42.2226 30.1974 42.2331 30.1675C42.2747 30.0483 42.306 29.9191 42.3269 29.7899C42.3999 29.4321 42.4729 29.0843 42.5355 28.7266C42.6085 28.2993 42.6711 27.872 42.7337 27.4448C42.7963 27.0473 42.8172 26.6498 42.9006 26.2523C42.9528 25.9741 43.1198 25.7257 43.4222 25.6362C44.4028 25.3183 45.0809 24.7121 45.373 23.7681C45.519 23.3109 45.8007 23.0923 46.2701 23.0128C46.8022 22.9234 47.2925 22.7445 47.6055 22.2874C47.6889 22.1582 47.7411 22.0092 47.8454 21.8999C48.1166 21.6216 48.4086 21.3633 48.6904 21.095C49.358 20.4689 49.6084 19.7336 49.379 18.8591C49.2954 18.561 49.2538 18.2629 49.2016 17.9548C49.1599 17.7064 49.1808 17.4381 49.1078 17.1996C48.9408 16.6729 48.6279 16.2556 47.9916 16.1562C47.8143 16.1264 47.6473 16.0767 47.47 16.0568C47.0841 15.9972 46.7606 15.8382 46.5207 15.56C46.1034 15.0532 45.6965 14.5265 45.3106 13.9998C45.0602 13.662 44.8724 13.2943 44.3612 13.2545C44.2986 13.2545 44.2256 13.1651 44.1838 13.0956C43.9752 12.7478 43.6622 12.5689 43.2555 12.5291C43.0363 12.5093 42.7965 12.4894 42.5983 12.549C42.0245 12.7279 41.503 12.5689 40.9918 12.3801C40.7832 12.3105 40.5745 12.1813 40.4285 12.0323C40.2407 11.8435 40.0112 11.754 39.7609 11.7242C39.281 11.6547 38.8325 11.7839 38.3943 11.9428C38.1752 12.0223 37.9457 12.1018 37.6954 12.1813C37.8102 11.754 37.9145 11.3665 38.0291 10.9789C38.0813 10.7901 38.0606 10.6908 37.8519 10.6113C37.539 10.4821 37.2468 10.3132 36.9547 10.1442C36.8087 10.0548 36.6939 9.9256 36.5374 9.83617C35.9845 9.51818 35.3795 9.33931 34.7431 9.22006C34.0338 9.09088 33.3662 9.19025 32.7819 9.62749C32.4898 9.84611 32.1978 10.0548 31.9161 10.2535C31.8222 10.0448 31.6866 9.86598 31.5197 9.72686C31.624 9.71692 31.7388 9.68711 31.8431 9.64736C32.0517 9.56787 32.2603 9.47843 32.4377 9.35919C32.7506 9.13063 33.0636 8.89214 33.3453 8.62384C33.5122 8.46484 33.4704 8.33566 33.2514 8.23629C32.6463 7.95805 31.9995 7.84874 31.332 7.84874C31.0191 7.84874 30.7582 7.96798 30.5182 8.1071C30.268 8.25616 30.0488 8.43503 29.788 8.57415C29.5794 8.68346 29.3603 8.79277 29.0473 8.72321C29.1411 8.5344 29.1933 8.3456 29.3081 8.19654C29.7776 7.58043 30.3617 7.09351 31.0607 6.72584C31.2589 6.62647 31.4258 6.49728 31.3842 6.24886C31.3529 6.06999 31.4258 5.95074 31.5719 5.85137C31.6867 5.77187 31.791 5.68244 31.9371 5.56319C31.8014 5.49363 31.7179 5.43401 31.6136 5.4042C31.4155 5.33464 31.1859 5.30483 30.9982 5.21539C30.873 5.15577 30.7478 5.03652 30.7165 4.91728C30.6538 4.68872 30.6748 4.44029 30.6122 4.2018C30.487 3.65526 30.3306 3.10871 30.1949 2.61186C29.9341 2.44293 29.7671 2.5423 29.6212 2.70129C29.4751 2.85035 29.3082 2.97953 29.1726 3.13853C29.1099 3.21802 29.0578 3.33727 29.0787 3.43664C29.1205 3.73476 29.1205 3.78444 28.8284 3.854C28.5676 3.92356 28.4111 4.07262 28.3276 4.29124C28.2651 4.45023 28.1399 4.52973 27.9731 4.56948C27.5036 4.67878 27.0446 4.64897 26.5752 4.58935C26.2206 4.53966 25.8971 4.46017 25.6885 4.15212C25.6469 4.08256 25.5426 4.03287 25.4694 4.02293C25.1669 3.97325 24.8644 3.94344 24.5619 3.89375C24.3428 3.854 24.2176 3.92356 24.0924 4.10243C23.8734 4.44029 23.3518 4.8179 22.778 4.59929C22.4129 4.46017 22.0269 4.50985 21.6514 4.6291C21.2967 4.73841 20.9316 4.8179 20.5665 4.87753C20.3057 4.92721 20.0449 4.88747 19.8362 4.69866C19.3877 4.30117 19.1269 3.80432 19.0538 3.21802C18.9913 2.7311 19.1895 2.31374 19.4503 1.92619C19.7319 1.51877 19.7215 1.46908 19.3355 1.18091C19.1477 1.04179 19.0747 0.882792 19.1269 0.664175C19.1477 0.57474 19.2103 0.485306 19.1895 0.415746C19.1686 0.306437 19.1164 0.167317 19.033 0.127568C18.7931 0.00832237 18.6053 0.0778825 18.4175 0.326311C18.1567 0.654237 17.9272 1.02191 17.4578 1.09147C17.124 1.14116 16.7797 1.17097 16.4355 1.20078C16.352 1.21072 16.2685 1.18091 16.1851 1.19084C15.9243 1.20078 15.7887 1.36971 15.6635 1.55852C15.4444 1.90632 15.3505 1.91626 15.0376 1.63802C15.0063 1.61814 14.9854 1.57839 14.9541 1.56846C14.6725 1.42934 14.4012 1.29022 14.1196 1.18091C14.0466 1.1511 13.8901 1.22066 13.8379 1.29022C13.6502 1.53864 13.6502 1.82682 13.7232 2.115C13.8275 2.49261 14.0153 2.78079 14.4221 2.95966C14.7768 3.11865 14.7559 3.52608 14.4221 3.70494C14.3178 3.76457 14.1926 3.79438 14.0883 3.854C13.3789 4.24155 12.6696 4.6291 11.9602 5.02659C11.8142 5.11602 11.6785 5.11602 11.5325 5.0564C11.2613 4.93715 11.0005 4.92721 10.7501 5.10608C10.7188 5.13589 10.6249 5.13589 10.5832 5.10608C10.2598 4.8974 9.99901 4.64897 9.92599 4.25149C9.8634 3.90369 9.68606 3.64532 9.28965 3.55589C9.01842 3.49626 8.77849 3.55589 8.52812 3.63538C8.17344 3.74469 7.82919 3.75463 7.45364 3.70494C7.19285 3.6652 6.92162 3.67513 6.66082 3.70494C6.48348 3.72482 6.36873 3.86394 6.34787 4.04281C6.327 4.23161 6.45219 4.34092 6.6191 4.41048C6.73385 4.46017 6.85903 4.48998 6.94248 4.56948C7.02594 4.63904 7.09896 4.75828 7.09896 4.84772C7.09896 4.91728 6.98421 5.01665 6.90076 5.04646C6.77557 5.08621 6.62953 5.09615 6.49391 5.09615C6.00362 5.11602 5.77412 5.4042 5.97232 5.83149C6.0975 6.0998 6.27485 6.35816 6.47305 6.58672C6.83816 7.03389 6.87989 7.45125 6.54607 7.90836C6.3583 8.16673 6.18096 8.43503 6.28528 8.78283C6.30614 8.85239 6.27485 8.94182 6.23312 9.01138C6.08707 9.3095 5.98275 9.61755 5.99319 9.96535C5.99319 10.0448 5.96189 10.1343 5.93059 10.2138C5.87844 10.3926 5.78455 10.5715 5.77412 10.7504C5.74282 11.1876 5.54462 11.3466 5.11691 11.2174C4.71007 11.0882 4.35539 11.1479 3.99027 11.3367C3.86509 11.3963 3.70861 11.4062 3.56257 11.4162C3.39566 11.4162 3.22875 11.3864 3.05141 11.3665C3.00968 11.5851 2.8532 11.6745 2.64457 11.7044C2.59241 11.7143 2.55068 11.7441 2.50895 11.7739C1.84131 12.2111 1.60138 12.8869 1.42404 13.5924C1.37188 13.7812 1.36145 13.9601 1.12152 14.0694C0.96504 14.139 0.829426 14.298 0.725108 14.447C0.464312 14.8147 0.474744 15.083 0.766835 15.4308C0.954295 15.5203 1.05861 15.6991 1.03775 15.9277Z" fill="black"/>
</svg>
