<svg width="20" height="20" viewBox="0 0 20 20" fill="none" xmlns="http://www.w3.org/2000/svg">
<path d="M15.4166 2.5H13.3333C13.1032 2.5 12.9166 2.68655 12.9166 2.91667V2.96576L15.8333 5.29909V2.91667C15.8333 2.68655 15.6468 2.5 15.4166 2.5Z" fill="#1C274C"/>
<path fill-rule="evenodd" clip-rule="evenodd" d="M8.95837 7.91667C8.95837 7.34137 9.42479 6.875 10 6.875C10.5754 6.875 11.0417 7.34137 11.0417 7.91667C11.0417 8.492 10.5754 8.95833 10 8.95833C9.42479 8.95833 8.95837 8.492 8.95837 7.91667Z" fill="#1C274C"/>
<path fill-rule="evenodd" clip-rule="evenodd" d="M17.2916 9.13376L17.9429 9.65476C18.2125 9.87034 18.6057 9.82667 18.8214 9.55709C19.037 9.28759 18.9933 8.89426 18.7237 8.67859L11.9521 3.26136C10.8109 2.34831 9.18912 2.34831 8.04781 3.26136L1.27622 8.67859C1.00667 8.89426 0.962975 9.28759 1.17861 9.55709C1.39423 9.82667 1.78754 9.87034 2.05708 9.65476L2.70832 9.13376V17.7083H1.66665C1.32147 17.7083 1.04165 17.9882 1.04165 18.3333C1.04165 18.6785 1.32147 18.9583 1.66665 18.9583H18.3333C18.6785 18.9583 18.9583 18.6785 18.9583 18.3333C18.9583 17.9882 18.6785 17.7083 18.3333 17.7083H17.2916V9.13376ZM7.70831 7.91667C7.70831 6.65102 8.73429 5.62501 9.99996 5.62501C11.2656 5.62501 12.2916 6.65102 12.2916 7.91667C12.2916 9.18234 11.2656 10.2083 9.99996 10.2083C8.73429 10.2083 7.70831 9.18234 7.70831 7.91667ZM10.0411 11.0417C10.5952 11.0417 11.0725 11.0416 11.4549 11.093C11.8645 11.1481 12.2573 11.2723 12.5758 11.5908C12.8944 11.9094 13.0185 12.3021 13.0736 12.7118C13.1218 13.0702 13.1248 13.5122 13.125 14.0225C13.125 14.0566 13.125 14.0909 13.125 14.1255V17.7083H11.875V14.1667C11.875 13.5598 11.8736 13.1674 11.8348 12.8783C11.7984 12.6073 11.7395 12.5223 11.692 12.4748C11.6444 12.4272 11.5594 12.3683 11.2883 12.3318C10.9992 12.293 10.6069 12.2917 9.99996 12.2917C9.39304 12.2917 9.00071 12.293 8.71171 12.3318C8.44062 12.3683 8.35562 12.4272 8.30804 12.4748C8.26046 12.5223 8.20162 12.6073 8.16517 12.8783C8.12631 13.1674 8.12498 13.5598 8.12498 14.1667V17.7083H6.87498V14.1255C6.87495 13.5715 6.87492 13.0941 6.92632 12.7118C6.9814 12.3021 7.10562 11.9094 7.42416 11.5908C7.74269 11.2723 8.13542 11.1481 8.54512 11.093C8.92737 11.0416 9.40479 11.0417 9.95887 11.0417H10.0411Z" fill="#1C274C"/>
<path fill-rule="evenodd" clip-rule="evenodd" d="M8.95837 7.91667C8.95837 7.34137 9.42479 6.875 10 6.875C10.5754 6.875 11.0417 7.34137 11.0417 7.91667C11.0417 8.492 10.5754 8.95833 10 8.95833C9.42479 8.95833 8.95837 8.492 8.95837 7.91667Z" fill="#1C274C"/>
</svg>
