<svg width="553" height="418" viewBox="0 0 553 418" fill="none" xmlns="http://www.w3.org/2000/svg">
<g clip-path="url(#clip0_20_30)">
<path d="M227.939 289.615C227.939 304.042 216.741 315.736 202.928 315.736C189.115 315.736 177.917 304.042 177.917 289.615C177.917 289.288 177.922 288.964 177.936 288.639C178.189 274.216 189.594 262.742 203.405 263.011C217.215 263.281 228.201 275.192 227.943 289.615H227.939Z" fill="#033C08"/>
<path d="M194.121 301.216L186.917 291.607L188.623 290.326L194.492 298.154L217.597 279.243L218.948 280.895L194.121 301.216Z" fill="white"/>
<path d="M553 416.501H0V418H553V416.501Z" fill="#E6E6E6"/>
<path d="M364.106 146.859C364.623 147.095 365.121 147.373 365.594 147.689L412.903 127.489L414.59 115.021L433.494 114.905L432.377 143.502L369.934 160.025C369.803 160.459 369.645 160.884 369.462 161.299C368.559 163.226 367.107 164.844 365.288 165.948C363.47 167.052 361.365 167.594 359.24 167.506C357.114 167.418 355.062 166.703 353.341 165.452C351.62 164.201 350.307 162.469 349.566 160.474C348.826 158.478 348.692 156.309 349.18 154.237C349.668 152.165 350.757 150.284 352.31 148.83C353.864 147.375 355.812 146.413 357.91 146.062C360.009 145.712 362.164 145.99 364.105 146.861L364.106 146.859Z" fill="#A0616A"/>
<path d="M440.368 405.987H427.437L421.285 356.086H440.37L440.368 405.987Z" fill="#A0616A"/>
<path d="M418.2 402.291H443.139V417.995H402.498C402.498 413.829 404.152 409.833 407.097 406.887C410.042 403.941 414.036 402.286 418.2 402.286V402.291Z" fill="#2F2E41"/>
<path d="M490.66 402.331L477.792 403.598L466.78 354.541L485.774 352.674L490.66 402.331Z" fill="#A0616A"/>
<path d="M468.229 400.83L493.044 398.384L494.582 414.015L454.145 418C453.737 413.855 454.991 409.717 457.633 406.497C460.274 403.277 464.086 401.238 468.229 400.83Z" fill="#2F2E41"/>
<path d="M443.968 62.092C458.275 62.092 469.874 50.4881 469.874 36.174C469.874 21.8598 458.275 10.256 443.968 10.256C429.66 10.256 418.062 21.8598 418.062 36.174C418.062 50.4881 429.66 62.092 443.968 62.092Z" fill="#A0616A"/>
<path d="M424.547 395.895C423.435 395.897 422.358 395.507 421.506 394.792C420.655 394.078 420.082 393.086 419.89 391.991C413.201 354.826 391.318 233.279 390.795 229.91C390.783 229.832 390.777 229.754 390.777 229.676V220.612C390.777 220.282 390.88 219.96 391.072 219.692L393.962 215.645C394.099 215.45 394.279 215.289 394.489 215.175C394.698 215.061 394.93 214.996 395.169 214.985C411.649 214.213 465.611 211.947 468.218 215.206C470.836 218.477 469.905 228.404 469.694 230.359L469.705 230.563L493.95 385.685C494.14 386.922 493.835 388.185 493.101 389.199C492.368 390.213 491.264 390.897 490.03 391.103L474.888 393.599C473.76 393.78 472.605 393.55 471.632 392.951C470.659 392.352 469.933 391.424 469.587 390.335C464.904 375.363 449.2 324.996 443.757 305.506C443.727 305.377 443.651 305.264 443.542 305.19C443.433 305.115 443.301 305.084 443.17 305.103C443.04 305.122 442.921 305.189 442.838 305.292C442.755 305.394 442.714 305.524 442.722 305.655C442.994 324.234 443.651 371.633 443.882 388.005L443.906 389.768C443.916 390.962 443.478 392.116 442.679 393.003C441.88 393.889 440.777 394.443 439.589 394.555L424.988 395.879C424.841 395.892 424.694 395.897 424.547 395.895Z" fill="#2F2E41"/>
<path d="M427.527 72.2837C423.006 74.9727 420.3 79.913 418.748 84.9493C415.874 94.2577 414.144 103.882 413.596 113.609L411.955 142.732L391.645 219.946C409.249 234.847 419.401 231.46 443.097 219.271C466.794 207.083 469.5 223.335 469.5 223.335L474.238 157.636L481.008 85.8449C479.488 84.0143 477.768 82.3599 475.879 80.9128C469.622 76.0439 462.342 72.6592 454.588 71.014C446.833 69.3689 438.806 69.506 431.113 71.4151L427.527 72.2837Z" fill="#033C08"/>
<path d="M420.93 162.452C421.476 162.657 422.005 162.904 422.512 163.191L469.291 139.764L470.067 127.074L489.363 125.743L490.397 154.672L427.885 175.356C427.375 177.548 426.21 179.532 424.545 181.045C422.88 182.558 420.794 183.528 418.565 183.826C416.336 184.124 414.068 183.736 412.065 182.713C410.062 181.69 408.417 180.082 407.35 178.101C406.283 176.12 405.844 173.861 406.091 171.624C406.339 169.388 407.261 167.28 408.735 165.581C410.21 163.881 412.166 162.671 414.345 162.112C416.523 161.552 418.821 161.67 420.931 162.449L420.93 162.452Z" fill="#A0616A"/>
<path d="M480.671 86.1679C492.179 90.2314 494.208 134.26 494.208 134.26C480.668 126.81 464.42 139.001 464.42 139.001C464.42 139.001 461.035 127.486 456.973 112.587C455.746 108.395 455.6 103.962 456.547 99.6983C457.493 95.435 459.503 91.4807 462.388 88.2034C462.388 88.2034 469.161 82.1022 480.671 86.1679Z" fill="#033C08"/>
<path d="M467.192 43.0261C463.964 40.4428 459.561 45.1366 459.561 45.1366L456.979 21.8918C456.979 21.8918 440.841 23.8261 430.51 21.2458C420.179 18.6655 418.567 30.6138 418.567 30.6138C418.035 25.7885 417.927 20.9257 418.245 16.0814C418.89 10.2687 427.282 4.45601 442.13 0.58063C456.977 -3.29475 464.724 13.498 464.724 13.498C475.058 18.661 470.424 45.6125 467.192 43.0261Z" fill="#2F2E41"/>
<path d="M120.702 34.1385C120.085 34.1396 119.495 34.3854 119.059 34.822C118.623 35.2586 118.379 35.8503 118.379 36.4671C118.379 37.084 118.623 37.6757 119.059 38.1122C119.495 38.5488 120.085 38.7947 120.702 38.7958H290.642C291.258 38.7947 291.849 38.5488 292.285 38.1122C292.72 37.6757 292.965 37.084 292.965 36.4671C292.965 35.8503 292.72 35.2586 292.285 34.822C291.849 34.3854 291.258 34.1396 290.642 34.1385H120.702Z" fill="#CCCCCC"/>
<path d="M120.702 48.1103C120.085 48.1099 119.494 48.3543 119.057 48.79C118.62 49.2257 118.374 49.817 118.373 50.434C118.372 51.0511 118.615 51.6434 119.05 52.0809C119.485 52.5184 120.075 52.7654 120.692 52.7676H228.13C228.435 52.7676 228.738 52.7073 229.021 52.5903C229.303 52.4733 229.56 52.3018 229.776 52.0855C229.992 51.8693 230.163 51.6126 230.28 51.3301C230.397 51.0475 230.457 50.7447 230.457 50.4389C230.457 50.1331 230.397 49.8303 230.28 49.5478C230.163 49.2653 229.992 49.0086 229.776 48.7923C229.56 48.5761 229.303 48.4046 229.021 48.2876C228.738 48.1705 228.435 48.1103 228.13 48.1103H120.702Z" fill="#CCCCCC"/>
<path d="M288.512 16.3373C288.512 21.9838 284.129 26.5612 278.722 26.5612C273.316 26.5612 268.933 21.9839 268.933 16.3373C268.933 16.2093 268.935 16.0822 268.94 15.9553C269.039 10.3099 273.503 5.81898 278.909 5.92441C284.314 6.02984 288.614 10.6919 288.513 16.3373H288.512Z" fill="#033C08"/>
<path d="M275.275 20.8779L272.456 17.1167L273.123 16.6153L275.42 19.6795L284.464 12.2777L284.993 12.9242L275.275 20.8779Z" fill="white"/>
<path d="M120.702 119.575C120.085 119.576 119.495 119.822 119.059 120.259C118.623 120.695 118.379 121.287 118.379 121.904C118.379 122.521 118.623 123.112 119.059 123.549C119.495 123.985 120.085 124.231 120.702 124.232H290.642C291.258 124.231 291.849 123.985 292.285 123.549C292.72 123.112 292.965 122.521 292.965 121.904C292.965 121.287 292.72 120.695 292.285 120.259C291.849 119.822 291.258 119.576 290.642 119.575H120.702Z" fill="#CCCCCC"/>
<path d="M120.702 133.547C120.085 133.547 119.494 133.791 119.057 134.227C118.62 134.662 118.374 135.254 118.373 135.871C118.372 136.488 118.615 137.08 119.05 137.518C119.485 137.955 120.075 138.202 120.692 138.204H228.13C228.747 138.204 229.339 137.959 229.776 137.522C230.212 137.085 230.457 136.493 230.457 135.876C230.457 135.258 230.212 134.666 229.776 134.229C229.339 133.792 228.747 133.547 228.13 133.547H120.702Z" fill="#CCCCCC"/>
<path d="M287.763 101.774C287.763 107.42 283.38 111.998 277.973 111.998C272.567 111.998 268.184 107.42 268.184 101.774C268.184 101.646 268.186 101.519 268.191 101.392C268.29 95.7465 272.754 91.2556 278.16 91.361C283.565 91.4665 287.865 96.1285 287.764 101.774H287.763Z" fill="#033C08"/>
<path d="M274.526 106.315L271.706 102.553L272.374 102.052L274.671 105.116L283.715 97.7143L284.243 98.3608L274.526 106.315Z" fill="white"/>
<path d="M120.702 205.012C120.085 205.013 119.495 205.259 119.059 205.695C118.623 206.132 118.379 206.723 118.379 207.34C118.379 207.957 118.623 208.549 119.059 208.985C119.495 209.422 120.085 209.668 120.702 209.669H290.642C291.258 209.668 291.849 209.422 292.285 208.985C292.72 208.549 292.965 207.957 292.965 207.34C292.965 206.723 292.72 206.132 292.285 205.695C291.849 205.259 291.258 205.013 290.642 205.012H120.702Z" fill="#CCCCCC"/>
<path d="M120.702 218.984C120.085 218.983 119.494 219.228 119.057 219.663C118.62 220.099 118.374 220.69 118.373 221.307C118.372 221.924 118.615 222.517 119.05 222.954C119.485 223.392 120.075 223.639 120.692 223.641H228.13C228.747 223.641 229.339 223.395 229.776 222.959C230.212 222.522 230.457 221.93 230.457 221.312C230.457 220.695 230.212 220.102 229.776 219.666C229.339 219.229 228.747 218.984 228.13 218.984H120.702Z" fill="#CCCCCC"/>
<path d="M287.763 187.211C287.763 192.857 283.38 197.434 277.973 197.434C272.567 197.434 268.184 192.857 268.184 187.211C268.184 187.083 268.186 186.955 268.191 186.829C268.29 181.183 272.754 176.692 278.16 176.798C283.565 176.903 287.865 181.565 287.764 187.211H287.763Z" fill="#033C08"/>
<path d="M274.526 191.751L271.706 187.99L272.374 187.489L274.671 190.553L283.715 183.151L284.243 183.797L274.526 191.751Z" fill="white"/>
</g>
<defs>
<clipPath id="clip0_20_30">
<rect width="553" height="418" fill="white"/>
</clipPath>
</defs>
</svg>
