<svg width="685" height="456" viewBox="0 0 685 456" fill="none" xmlns="http://www.w3.org/2000/svg">
<g clip-path="url(#clip0_20_162)">
<path d="M642.059 432.761L634.365 437.765L611.407 410.463L622.763 403.078L642.059 432.761Z" fill="#A0616A"/>
<path d="M647.549 440.612L623.889 456L623.695 455.701C622.107 453.258 621.554 450.284 622.158 447.434C622.762 444.583 624.473 442.089 626.915 440.501L629.105 434.41L639.301 432.445L641.366 431.102L647.549 440.612Z" fill="#2F2E41"/>
<path d="M510.204 445.873L501.028 445.872L496.662 410.466L510.206 410.467L510.204 445.873Z" fill="#A0616A"/>
<path d="M510.528 455.448L482.307 455.447V455.09C482.307 452.176 483.464 449.382 485.524 447.321C487.584 445.261 490.378 444.103 493.291 444.103L498.447 440.192L508.065 444.104H510.528L510.528 455.448Z" fill="#2F2E41"/>
<path d="M605.198 229.288L522.902 231.098L514.745 241.297C514.745 241.297 515.45 237.701 514.822 241.651C514.194 245.6 498.318 324.346 501.319 326.987C504.32 329.628 495.628 347.862 494.99 348.974C494.351 350.086 487.471 404.973 494.99 409.486L497.814 428.645H510.957C510.957 428.645 524.122 413.405 521.473 410.643C518.823 407.88 526.401 398.694 526.691 393.768C526.981 388.842 529.748 366.5 527.604 362.918C525.46 359.335 522.562 345.891 528 340.68C533.439 335.468 558.802 271.421 558.802 271.421C558.802 271.421 566.172 346.506 566.155 352.401C566.133 360.068 571.166 356.274 571.166 363.005C571.166 364.365 587.557 399.316 598.573 410.241L621.353 427.768L631.867 419.881V408.488C631.867 408.488 622.124 387.35 618.725 383.95C615.326 380.55 602.776 370.144 602.776 365.385C602.776 360.625 596.868 358.967 600.842 352.657C604.815 346.346 603.456 343.627 602.096 340.907C600.737 338.187 603.315 226.753 603.315 226.753L605.198 229.288Z" fill="#2F2E41"/>
<path d="M570.882 64.0549C584.617 64.0549 595.751 52.9186 595.751 39.1812C595.751 25.4439 584.617 14.3076 570.882 14.3076C557.148 14.3076 546.014 25.4439 546.014 39.1812C546.014 52.9186 557.148 64.0549 570.882 64.0549Z" fill="#A0616A"/>
<path d="M590.749 238.795L597.749 217.718L610.345 220.038L602.151 242.059C602.649 243.349 602.778 244.752 602.522 246.112C602.267 247.471 601.637 248.732 600.704 249.753C599.771 250.774 598.572 251.514 597.242 251.891C595.911 252.267 594.502 252.265 593.172 251.885C591.843 251.504 590.646 250.76 589.716 249.737C588.786 248.713 588.16 247.45 587.908 246.091C587.657 244.731 587.789 243.327 588.291 242.039C588.793 240.75 589.644 239.627 590.749 238.795Z" fill="#A0616A"/>
<path d="M445.572 198.063L462.724 183.958L472.146 192.634L453.482 206.901C453.216 208.259 452.577 209.515 451.637 210.529C450.696 211.543 449.492 212.274 448.158 212.641C446.825 213.008 445.416 212.995 444.089 212.605C442.763 212.214 441.572 211.462 440.649 210.431C439.727 209.401 439.11 208.133 438.869 206.771C438.627 205.41 438.77 204.007 439.282 202.722C439.793 201.437 440.653 200.32 441.764 199.497C442.875 198.674 444.194 198.177 445.572 198.063Z" fill="#A0616A"/>
<path d="M541.107 34.8298C543.788 35.6623 546.373 36.1531 548.116 33.9534C549.86 31.7538 549.404 29.2386 551.998 28.1782C554.167 27.4508 556.529 27.5602 558.622 28.4849C558.998 28.6251 559.366 28.7829 559.726 28.9406C559.927 28.7653 560.129 28.5989 560.348 28.4411C561.996 27.2686 564.031 26.773 566.034 27.0564C564.57 27.7637 563.366 28.9134 562.591 30.3428C563.309 30.7021 564.036 31.0614 564.772 31.3681C567.865 32.6336 571.21 33.161 574.543 32.9085C577.875 32.656 581.102 31.6305 583.969 29.9134C581.095 37.4851 583.33 40.1843 587.544 47.0988L587.71 47.5019C587.29 45.6879 592.801 43.5934 592.801 46.2225C592.559 48.916 591.97 51.5671 591.049 54.1097C596.454 45.9683 599.644 36.4422 597.55 27.3018C597.103 25.3826 596.901 23.3232 595.683 21.7632C594.466 20.2121 592.223 19.3006 590.453 20.177C590.233 17.2048 589.213 14.3477 587.5 11.9093C585.787 9.47089 583.445 7.54241 580.724 6.32885C578.002 5.11528 575.003 4.66201 572.045 5.01722C569.086 5.37243 566.279 6.52282 563.923 8.34613C561.732 10.0375 560.006 12.2547 558.052 14.2265C556.098 16.1984 553.785 17.9949 551.052 18.4856C549.317 18.7924 547.363 18.6083 545.979 19.7038C544.375 20.9746 544.358 23.2093 544.366 25.3564C545.935 25.3116 547.482 25.7357 548.809 26.5744C547.185 26.6153 545.615 27.1673 544.323 28.1519C544.298 28.1673 544.274 28.1849 544.253 28.2045C543.779 31.8151 543.972 32.5776 541.107 34.8298Z" fill="#2F2E41"/>
<path d="M628.601 116.36C628.022 113.586 626.877 110.961 625.236 108.65C623.596 106.339 621.496 104.391 619.068 102.93C618.887 102.001 618.565 101.407 618.071 101.232C611.002 98.7182 591.27 87.107 591.27 87.107L589.616 73.8297L553.909 72.1136L544.772 87.1071C544.772 87.1071 521.104 89.4866 521.543 98.1529C515.811 105.304 490.296 137.257 475.002 158.388C467.693 168.487 462.716 176.117 463.355 177.38C465.508 181.635 462.484 178.765 459.101 179.533C455.719 180.302 457.359 182.301 457.435 185.249C457.512 188.197 445.878 194.399 445.878 194.399C452.976 196.937 461.868 207.369 461.868 207.369C461.868 207.369 470.478 198.296 472.041 197.347C473.605 196.399 474.476 195.015 479.422 193.298C484.367 191.581 482.292 190.273 482.651 186.634C483.01 182.994 484.214 185.686 491.158 182.328C498.103 178.971 492.465 180.252 494.387 175.664C496.31 171.076 495.694 173.588 501.947 169.795C505.705 167.515 509.438 164.167 514.632 158.388C518.08 154.552 522.17 149.648 527.343 143.268C527.378 143.224 527.411 143.179 527.446 143.136C527.793 148.308 528.061 153.482 528.22 158.388C528.673 172.326 528.241 184.08 526.212 187.317C523.365 191.859 518.546 207.063 514.628 220.411C513.87 223 513.736 225.731 514.238 228.382C514.739 231.032 515.862 233.526 517.514 235.658C519.166 237.791 521.3 239.501 523.741 240.648C526.182 241.795 528.86 242.347 531.555 242.259C555.858 241.457 591.422 239.603 598.353 235.535C602.123 236.074 605.848 236.893 609.497 237.985C609.497 237.985 611.95 225.718 612.767 224.082C613.585 222.447 613.585 220.811 616.855 216.722C620.126 212.633 617.673 212.633 616.038 209.362C614.402 206.091 616.855 207.727 620.943 201.184C625.031 194.642 620.943 198.731 620.126 193.824C619.308 188.917 620.126 191.371 623.396 184.829C626.106 179.408 627.693 172.295 629.553 158.388C629.938 155.511 630.334 152.35 630.754 148.846C632.143 137.27 630.387 124.908 628.601 116.36Z" fill="#033C08"/>
<path d="M238.002 436.279C237.457 436.304 236.917 436.161 236.456 435.869C235.996 435.577 235.635 435.15 235.425 434.647C235.214 434.143 235.164 433.587 235.28 433.054C235.396 432.521 235.673 432.036 236.074 431.666L236.256 430.941C236.232 430.883 236.208 430.825 236.183 430.767C235.634 429.47 234.714 428.364 233.539 427.588C232.364 426.812 230.985 426.401 229.577 426.406C228.168 426.411 226.793 426.833 225.624 427.617C224.454 428.402 223.542 429.515 223.003 430.816C220.847 436.009 218.102 441.211 217.426 446.702C217.129 449.129 217.254 451.59 217.798 453.974C212.734 442.926 210.105 430.919 210.088 418.766C210.087 415.717 210.256 412.669 210.595 409.638C210.876 407.154 211.264 404.687 211.762 402.238C214.476 388.949 220.302 376.493 228.763 365.894C232.859 363.659 236.17 360.222 238.253 356.046C239.007 354.545 239.54 352.943 239.835 351.29C239.373 351.35 238.094 344.313 238.442 343.881C237.798 342.904 236.646 342.418 235.943 341.465C232.446 336.723 227.628 337.551 225.113 343.995C219.74 346.707 219.688 351.205 222.985 355.531C225.082 358.284 225.371 362.008 227.211 364.954C227.022 365.197 226.825 365.432 226.635 365.674C223.174 370.125 220.158 374.905 217.629 379.945C218.244 374.299 217.51 368.588 215.488 363.28C213.438 358.335 209.596 354.169 206.213 349.893C202.149 344.757 193.815 346.999 193.099 353.509C193.092 353.572 193.085 353.635 193.079 353.698C193.581 353.982 194.073 354.283 194.555 354.601C195.159 355.005 195.628 355.583 195.899 356.258C196.17 356.933 196.231 357.674 196.073 358.384C195.916 359.094 195.548 359.74 195.017 360.237C194.487 360.735 193.818 361.06 193.099 361.171L193.026 361.182C193.205 362.994 193.521 364.789 193.972 366.553C189.632 383.342 199.003 389.457 212.383 389.732C212.678 389.883 212.966 390.035 213.261 390.179C210.721 397.38 209.127 404.882 208.52 412.494C208.177 416.985 208.197 421.497 208.581 425.985L208.558 425.826C207.589 420.835 204.927 416.332 201.023 413.077C195.224 408.313 187.032 406.558 180.776 402.729C180.111 402.302 179.338 402.074 178.548 402.072C177.758 402.07 176.983 402.294 176.316 402.718C175.65 403.141 175.118 403.747 174.784 404.463C174.45 405.179 174.327 405.976 174.431 406.759C174.439 406.815 174.448 406.871 174.456 406.927C175.389 407.307 176.297 407.744 177.175 408.237C177.678 408.521 178.17 408.822 178.651 409.14C179.256 409.544 179.724 410.121 179.995 410.796C180.266 411.471 180.327 412.212 180.17 412.923C180.012 413.633 179.644 414.279 179.114 414.776C178.583 415.274 177.915 415.599 177.196 415.71L177.122 415.721C177.069 415.729 177.024 415.736 176.971 415.744C178.564 419.549 180.801 423.052 183.582 426.099C186.296 440.755 197.953 442.145 210.421 437.877H210.429C211.797 443.824 213.779 449.612 216.344 455.148H237.473C237.548 454.913 237.616 454.671 237.685 454.436C235.729 454.559 233.765 454.442 231.838 454.088C233.406 452.164 234.973 450.224 236.541 448.3C236.576 448.264 236.609 448.226 236.64 448.187C237.435 447.202 238.237 446.225 239.033 445.24L239.033 445.239C239.075 442.221 238.728 439.209 238.002 436.279Z" fill="#F2F2F2"/>
<path d="M75.4844 404.314L81.3143 410.477L108.384 390.417L99.7801 381.321L75.4844 404.314Z" fill="#C78F8F"/>
<path d="M85.0376 407.723L78.4376 401.521L76.8169 400.002L60.0144 413.439L64.3853 418.06L69.5301 414.759L67.1665 421L78.755 433.251C79.3102 433.839 80.0387 434.234 80.8341 434.378C81.6295 434.522 82.4501 434.408 83.1762 434.053C83.9024 433.697 84.4959 433.119 84.8704 432.403C85.2448 431.686 85.3804 430.869 85.2574 430.07L82.7564 413.886L87.1636 409.717L85.0376 407.723Z" fill="#2F2E41"/>
<path d="M203.609 179.919L201.761 200.102C201.761 200.102 198.535 215.308 200.769 214.076C203.003 212.843 198.997 218.391 200.052 223.201C201.107 228.011 191.041 263.884 195.6 260.168C200.159 256.452 192.966 282.124 188.416 294.789C187.023 298.704 185.591 302.667 184.151 306.601C183.867 307.398 183.582 308.184 183.289 308.981C181.421 314.1 179.554 319.143 177.763 323.902C177.507 324.566 177.26 325.229 177.014 325.884C177.004 325.902 177.004 325.921 176.995 325.921C171.1 341.44 166.048 353.651 164.029 355.67C162.977 356.722 146.287 368.781 129.463 380.859C111.806 393.534 94.0062 406.237 94.0062 406.237L77.3818 388.794C77.3818 388.794 77.7798 388.68 78.5287 388.452C79.9124 388.054 82.4716 387.305 85.8269 386.31C99.8161 382.186 82.0449 375.768 94.7458 371.18C98.3282 369.89 100.717 368.885 101.257 368.354C104.413 365.273 108.65 357.926 110.65 361.007C112.649 364.088 121.72 341.194 124.336 338.928C125.738 337.705 130.316 331.989 134.24 326.964C137.614 322.641 140.514 318.821 140.514 318.821C140.514 318.821 140.571 316.773 140.656 313.512C140.78 308.687 140.96 301.188 141.15 293.68C141.14 293.67 141.14 293.67 141.15 293.67C141.216 290.845 141.282 288.02 141.349 285.337C141.396 283.261 141.443 281.261 141.491 279.412C141.614 273.876 141.699 269.686 141.699 268.643C141.699 265.221 141.699 267.885 144.4 265.818C144.804 265.501 145.187 265.159 145.547 264.794C146.125 264.274 146.658 263.706 147.14 263.097C147.339 262.671 146.097 263.249 144.486 262.927C143.613 262.751 142.806 262.338 142.154 261.732C138.761 258.68 142.42 249.294 142.42 249.294C134.705 233.861 135.264 221.205 138.875 211.45C141.575 204.449 145.86 198.171 151.395 193.106C153.502 191.098 155.796 189.298 158.248 187.73L158.485 186.451L161.091 172.335C162.478 171.573 163.919 170.917 165.404 170.373C170.033 168.711 175.001 168.216 179.867 168.932C184.703 169.632 189.386 171.148 193.714 173.416C197.253 175.194 200.573 177.376 203.609 179.919Z" fill="#2F2E41"/>
<path d="M130.815 435.759L139.26 436.545L146.377 403.608L133.911 402.448L130.815 435.759Z" fill="#C78F8F"/>
<path d="M155.139 448.67L142.59 438.156L143.159 432.108L140.24 432.013L131.198 431.719H131.188L128.97 431.643L125.208 452.822L131.548 453.41L133.226 447.532L135.567 453.789L138.922 454.102L152.352 455.353C152.466 455.363 152.589 455.372 152.703 455.372C153.237 455.373 153.765 455.26 154.252 455.041C154.739 454.822 155.174 454.502 155.528 454.102C156.077 453.5 156.414 452.734 156.485 451.921C156.54 451.311 156.447 450.696 156.212 450.13C155.978 449.563 155.61 449.062 155.139 448.67Z" fill="#2F2E41"/>
<path d="M177.763 323.902C174.55 341.393 160.949 382.404 152.722 406.408C148.978 417.376 146.363 424.799 146.363 424.799L142.098 423.453H142.088L134.875 421.177L132.25 420.343H132.24L129.056 419.329C129.056 419.329 129.425 399.743 129.463 380.859C129.492 372.943 129.454 365.141 129.302 358.96C129.132 352.219 128.838 347.394 128.355 346.437C126.354 342.512 129.7 342.095 133.236 341.109C136.78 340.113 134.013 338.615 132.638 335.43C131.71 333.307 133.539 330.472 134.837 328.86C135.196 328.407 135.578 327.973 135.984 327.561C135.984 327.561 135.358 327.343 134.24 326.964C137.614 322.641 140.514 318.821 140.514 318.821C140.514 318.821 140.571 316.773 140.656 313.512C140.78 308.687 140.96 301.188 141.15 293.68C141.14 293.67 141.14 293.67 141.15 293.67C141.216 290.845 141.282 288.02 141.349 285.337C146.77 289.499 152.04 293.576 156.817 297.349C156.823 297.353 156.827 297.359 156.831 297.366C156.834 297.372 156.836 297.379 156.836 297.387C168.313 306.459 176.929 313.74 178.142 316.053C178.692 317.096 178.502 319.883 177.763 323.902Z" fill="#2F2E41"/>
<path d="M684.052 455.996H0.947795C0.696424 455.996 0.455348 455.896 0.277602 455.719C0.0998559 455.541 0 455.3 0 455.048C0 454.797 0.0998559 454.556 0.277602 454.378C0.455348 454.2 0.696424 454.1 0.947795 454.1H684.052C684.304 454.1 684.545 454.2 684.722 454.378C684.9 454.556 685 454.797 685 455.048C685 455.3 684.9 455.541 684.722 455.719C684.545 455.896 684.304 455.996 684.052 455.996Z" fill="#E6E6E6"/>
<path d="M156.305 145.802L158.082 162.28L157.037 183.888L204.887 178.202L209.382 145.802L203.653 145.859L156.305 145.802Z" fill="#FFB6B6"/>
<path d="M197.007 92.5785L178.999 78.3584L169.546 77.8087L155.519 86.7965L152.084 104.323L143.961 124.059L155.876 177.319C155.876 177.319 156.993 181.141 154.065 181.6C151.137 182.059 151.488 187.693 151.488 187.693C151.488 187.693 152.084 192.575 149.241 193.005C146.397 193.435 138.815 193.435 145.45 201.967C152.084 210.5 204.56 178.23 204.56 178.23L212.181 138.229C212.181 138.229 226.962 118.372 211.044 107L197.007 92.5785Z" fill="#033C08"/>
<path d="M118.393 213.505C117.6 212.515 117.033 211.362 116.733 210.129C116.433 208.896 116.407 207.612 116.656 206.368C116.906 205.123 117.425 203.949 118.178 202.927C118.931 201.905 119.898 201.061 121.012 200.454L143.664 124.419L157.827 131.551L133.159 204.43C134.056 206.37 134.209 208.571 133.591 210.616C132.973 212.661 131.626 214.409 129.806 215.528C127.986 216.646 125.819 217.058 123.715 216.686C121.612 216.313 119.718 215.181 118.393 213.505Z" fill="#C78F8F"/>
<path d="M158.772 86.093C158.772 86.093 154.723 83.9408 151.954 93.2543C149.736 100.71 131.746 145.123 131.517 155.92C130.036 156.234 128.702 157.032 127.724 158.188C126.747 159.343 126.182 160.791 126.118 162.304L148.361 165.285C152.248 162.006 153.268 157.577 151.764 156.263L156.594 143.069L176.742 101.092L161.726 87.5967L158.772 86.093Z" fill="#033C08"/>
<path d="M277.626 188.512C277.914 187.276 277.926 185.992 277.664 184.75C277.401 183.509 276.87 182.34 276.106 181.326C275.343 180.312 274.367 179.478 273.247 178.882C272.126 178.286 270.889 177.943 269.622 177.877L217.66 118.519L206.638 131.675L260.388 186.717C260.419 188.853 261.232 190.904 262.674 192.481C264.115 194.058 266.085 195.052 268.21 195.273C270.335 195.494 272.467 194.928 274.202 193.682C275.938 192.436 277.156 190.597 277.626 188.512Z" fill="#C78F8F"/>
<path d="M186.132 91.0954C186.132 91.0954 188.852 87.4034 195.376 94.6032C200.599 100.367 236.022 132.63 240.897 142.267C242.367 141.91 243.915 142.052 245.296 142.671C246.677 143.29 247.813 144.351 248.525 145.687L229.757 157.997C224.835 156.722 222.001 153.169 222.788 151.334L212.73 141.527L176.414 112.392L184.119 93.7291L186.132 91.0954Z" fill="#033C08"/>
<path d="M436.346 215.309C434.846 214.791 433.608 213.707 432.894 212.29C432.18 210.872 432.048 209.232 432.525 207.718C432.627 207.412 432.754 207.115 432.905 206.829L418.554 191.15L423.946 181.067L441.283 204.672C442.417 205.389 443.282 206.461 443.743 207.722C444.203 208.982 444.234 210.36 443.829 211.639C443.592 212.365 443.214 213.037 442.717 213.617C442.221 214.197 441.615 214.673 440.934 215.019C440.253 215.364 439.511 215.572 438.749 215.631C437.988 215.69 437.223 215.598 436.497 215.361C436.447 215.344 436.396 215.327 436.346 215.309Z" fill="#FFB6B6"/>
<path d="M344.34 96.2172C343.865 98.4312 343.815 100.715 344.191 102.948C344.29 103.579 344.427 104.205 344.601 104.82C345.243 107.12 345.854 109.24 346.443 111.152C346.789 112.34 347.146 113.46 347.486 114.498C349.45 120.564 350.984 123.997 352.071 124.72C352.598 125.073 353.128 125.397 353.64 125.713C356.271 127.323 358.178 128.49 356.903 131.461C356.717 131.886 356.497 132.295 356.245 132.683C355.822 133.336 355.356 133.959 354.848 134.547C354.558 134.88 354.291 135.232 354.047 135.6C353.73 136.07 353.592 136.466 353.763 136.824C353.979 137.265 354.577 137.485 355.86 137.547C356.064 137.556 356.298 137.568 356.548 137.568C356.629 137.573 356.713 137.569 356.807 137.57C356.972 137.572 357.159 137.574 357.349 137.567C358.935 137.536 360.981 138.371 363.171 139.646C369.634 143.411 377.25 150.989 377.342 151.084L424.892 199.715L425.818 199.094L428.019 197.615L428.78 197.107L429.649 196.523L433.43 193.992L435.342 192.714L423.076 170.191L421.742 167.743L420.597 165.63L397.183 122.621L387.883 107.834L385.807 104.54L376.962 90.4916C375.714 88.5038 374.085 86.7815 372.171 85.423C370.257 84.0646 368.094 83.0965 365.806 82.5742C363.517 82.0519 361.148 81.9855 358.834 82.3788C356.52 82.7721 354.307 83.6175 352.319 84.8666C352.185 84.9508 352.052 85.0368 351.92 85.1246C348.051 87.699 345.333 91.6763 344.34 96.2172Z" fill="#033C08"/>
<path d="M347.496 436.061L338.784 435.987L334.928 401.594L347.786 401.703L347.496 436.061Z" fill="#FFB6B6"/>
<path d="M349.806 432.041L347.532 431.89L338.253 431.255L335.267 431.056L335.211 437.284L321.297 446.726C320.61 447.193 320.09 447.868 319.813 448.651C319.536 449.435 319.517 450.286 319.758 451.081C320 451.876 320.489 452.573 321.154 453.071C321.82 453.568 322.627 453.84 323.458 453.846L340.774 453.988L343.807 447.845L344.916 454.026L351.455 454.083L349.806 432.041Z" fill="#2F2E41"/>
<path d="M439.215 429.694L430.888 432.255L416.833 400.631L429.123 396.852L439.215 429.694Z" fill="#FFB6B6"/>
<path d="M440.207 425.168L437.989 425.709L428.957 427.899L426.047 428.61L427.876 434.573L417.46 447.769C416.945 448.421 416.652 449.221 416.624 450.051C416.596 450.881 416.833 451.699 417.302 452.385C417.771 453.07 418.446 453.588 419.23 453.863C420.014 454.138 420.865 454.155 421.659 453.912L438.217 448.821L439.25 442.043L442.178 447.598L448.425 445.674L440.207 425.168Z" fill="#2F2E41"/>
<path d="M329.973 146.868L313.349 195.191L312.8 199.058C308.611 203.036 313.873 204.347 311.9 205.396C309.927 206.445 308.6 209.386 311.259 209.912C313.918 210.437 322.49 398.919 333.798 406.237C345.106 413.555 351.988 418.849 349.911 408.133C349.074 403.816 350.257 380.667 351.969 354.563C352.163 351.605 355.228 348.473 352.569 345.597C349.911 342.721 352.897 340.828 353.064 338.441C355.449 304.353 358.203 270.7 358.203 270.7C358.203 270.7 375.826 331.237 380.403 326.551C384.979 321.864 383.168 333.403 384.566 336.85C385.735 339.732 380.749 345.391 388.077 345.478C395.405 345.565 412.615 404.408 414.361 404.341C417.82 404.209 427.543 404.582 433.317 403.393C436.168 402.806 423.511 358.256 412.943 319.785C412.1 316.718 407.513 316.646 410.463 310.723C413.413 304.8 398.734 266.476 399.994 264.703C403.337 259.999 404.61 257.954 401.313 257.645C398.016 257.337 397.042 259.146 396.864 254.583C396.686 250.019 396.117 238.765 396.117 238.765C396.117 238.765 393.728 194.257 377.003 169.667L375.577 155.057L329.973 146.868Z" fill="#2F2E41"/>
<path d="M371.506 54.6058L349.46 57.7456L348.129 73.7129L337.25 90.7346C337.25 90.7346 313.068 107.756 329.933 134.645C323.515 157.808 317.134 180.021 311.051 194.831C306.312 224.219 348.767 227.036 397.3 216.635C397.3 216.635 396.631 204.069 392.227 198.028C387.822 191.987 390.22 190.668 390.22 190.668L387.142 179.382C388.884 163.068 383.004 161.604 380.24 154.067L388.63 75.8614L371.506 54.6058Z" fill="#033C08"/>
<path d="M265.671 191.301C265.905 189.731 266.742 188.314 268.004 187.352C269.266 186.389 270.854 185.958 272.429 186.149C272.749 186.192 273.064 186.263 273.372 186.358L286.143 169.366L297.043 172.814L277.033 194.199C276.536 195.446 275.641 196.494 274.487 197.178C273.333 197.863 271.985 198.146 270.653 197.983C269.125 197.782 267.739 196.981 266.8 195.758C265.861 194.534 265.447 192.988 265.648 191.459C265.655 191.406 265.663 191.353 265.671 191.301Z" fill="#FFB6B6"/>
<path d="M379.103 85.5071C378.79 85.1183 378.449 84.7392 378.089 84.3693C375.585 81.7887 372.361 80.0243 368.838 79.3071C365.316 78.5899 361.659 78.9534 358.346 80.3499C358.024 80.4823 357.701 80.6341 357.389 80.786C346.063 86.3505 339.95 90.0574 339.21 91.7923C338.954 92.3802 338.736 92.9583 338.518 93.5175C338.309 94.0674 338.11 94.5886 337.902 95.0626C337.03 97.0915 336.026 98.3524 333.466 97.7835C332.618 97.5759 331.799 97.2606 331.031 96.8452C330.68 96.6744 330.358 96.4943 330.054 96.3235C328.955 95.7171 328.159 95.2811 327.619 95.6792C327.097 96.0675 327.078 97.0535 327.552 99.3384C327.709 100.292 327.683 101.267 327.476 102.211C326.85 104.964 325.868 107.625 324.557 110.127C322.592 114.047 320.383 117.841 317.942 121.484L295.394 153.64L293.868 155.811L292.199 158.191L278.892 177.17L279.679 177.975L282.977 181.341L283.707 182.09L284.371 182.772L286.086 184.526L287.697 186.166L323.647 156.873L327.657 153.602L334.841 147.744L349.56 135.751L377.416 109.965C379.174 108.351 380.588 106.397 381.574 104.223C382.559 102.048 383.095 99.6965 383.15 97.3095C383.15 97.1484 383.159 96.9966 383.159 96.8355C383.17 92.7016 381.735 88.6943 379.103 85.5071Z" fill="#033C08"/>
<path d="M358.271 54.0246C371.876 54.0246 382.905 42.9927 382.905 29.3841C382.905 15.7756 371.876 4.74365 358.271 4.74365C344.665 4.74365 333.636 15.7756 333.636 29.3841C333.636 42.9927 344.665 54.0246 358.271 54.0246Z" fill="#FFB6B6"/>
<path d="M390.917 63.5516C394.223 68.2845 396.435 73.6942 397.392 79.3881C394.727 81.0931 391.625 81.9886 388.463 81.9661C388.355 81.5519 388.248 81.1375 388.125 80.7232C387.208 77.5149 385.845 74.4515 384.075 71.6234C384.317 74.673 383.904 77.7393 382.863 80.6158C381.191 79.856 379.4 79.3938 377.57 79.2501C376.079 79.25 374.608 79.5967 373.274 80.2628C371.724 75.1221 370.298 70.3957 369.285 67.0044C369.254 75.5058 356.797 82.9176 343.204 81.8435C342.713 81.5365 347.638 67.5568 347.162 67.2346C346.073 66.5134 345.014 65.7307 343.955 64.9635C348.405 58.0886 353.237 50.7228 352.409 49.618C352.47 50.9838 347.591 57.5516 342.283 63.7511C339.337 61.5875 356.076 26.385 347.806 23.5308C347.668 24.7738 345.842 24.7738 343.618 24.513C343.031 22.4621 342.158 20.5042 341.025 18.697C341.173 20.5174 340.953 22.349 340.381 24.0833C338.184 24.0839 335.994 24.3153 333.845 24.7738C333.348 23.9915 332.8 23.243 332.204 22.5333C332.262 23.3982 332.237 24.2668 332.127 25.1267C329.933 25.6024 328.123 26.1548 327.862 26.5999C326.144 25.9707 329.074 23.1318 328 21.6587C325.269 17.9758 329.319 12.6049 331.881 8.79919C337.144 1.00376 348.696 -1.69705 356.873 2.98328C357.242 1.70958 359.129 0.86562 361.553 0.297839C362.58 0.071343 363.631 -0.0266081 364.683 0.00625866C375.115 0.19039 389.598 8.79917 390.166 19.2188C390.212 20.2622 390.288 21.3978 390.365 22.6101C391.102 34.2726 390.196 45.0298 398.159 53.5618C401.043 56.6462 401.074 71.2551 399.969 78.7744C397.1 75.7513 395.059 63.9967 390.917 63.5516Z" fill="#2F2E41"/>
<path d="M153.177 39.6299C151.013 45.0204 144.909 55.621 144.082 61.4038L144.454 61.0378C145.164 62.2508 145.971 63.4046 146.866 64.4877C148.472 62.8014 150.411 61.4679 152.56 60.5722C151.386 62.9805 150.707 65.5995 150.561 68.2746C152.865 75.4978 163.515 72.2811 169.756 71.4924C175.987 78.6222 184.278 80.4827 195.135 76.3837C198.171 76.6964 201.57 76.8861 203.698 75.0915C205.826 73.2969 204.559 69.9735 205.703 67.4598C213.858 49.5549 206.332 43.0948 199.939 34.976C198.532 33.1894 198.538 30.5232 196.825 28.8185C194.45 26.4557 190.809 25.7289 187.451 25.1467C188.323 25.1926 189.193 25.0133 189.975 24.6259C190.758 24.2384 191.428 23.656 191.92 22.9346C192.353 22.2078 192.575 21.3758 192.565 20.5303C192.554 19.6849 192.31 18.8588 191.86 18.1432C190.659 16.1522 188.164 14.9944 185.757 14.7051C183.385 14.544 181.003 14.7489 178.694 15.3124C177.198 15.5092 175.75 15.9723 174.417 16.6797C173.789 17.0153 173.277 17.5348 172.952 18.1688C172.626 18.8029 172.502 19.5212 172.595 20.2279C172.796 20.8804 173.141 21.4793 173.605 21.9798C174.069 22.4802 174.641 22.8694 175.276 23.1183C176.245 23.5281 177.265 23.8072 178.307 23.9482C173.518 23.3266 168.653 24.1783 164.36 26.39C158.979 29.2606 155.349 34.2422 153.177 39.6299Z" fill="#2F2E41"/>
<path d="M182.312 69.8509C192.934 69.8509 201.545 61.2379 201.545 50.6132C201.545 39.9885 192.934 31.3755 182.312 31.3755C171.689 31.3755 163.078 39.9885 163.078 50.6132C163.078 61.2379 171.689 69.8509 182.312 69.8509Z" fill="#C78F8F"/>
<path d="M163.804 40.2983C164.919 43.6694 168.106 44.7557 171.052 45.4332C171.981 45.6497 172.915 45.8514 173.858 46.031C174.206 45.5958 174.576 45.1694 174.963 44.7664C176.568 43.08 178.507 41.7465 180.656 40.8509C179.727 42.7532 179.109 44.7926 178.827 46.8909C180.607 47.1493 182.398 47.3605 184.198 47.5244C185.722 47.8487 187.311 47.5753 188.639 46.7606C189.966 45.946 190.93 44.6524 191.331 43.1471C192.97 45.828 194.908 48.3527 197.558 49.4176C199.074 49.9623 200.724 50.0071 202.267 49.5454C203.809 49.0838 205.164 48.1399 206.131 46.8522C207.659 44.7517 208.719 42.3476 209.238 39.8023C209.99 36.8171 210.408 33.3781 208.931 31.4841C207.748 29.9512 205.708 29.9237 203.825 30.0596C199.669 30.3785 195.557 31.1242 191.553 32.2849L191.215 33.0471C191.903 28.913 190.41 24.9355 187.649 23.5209C185.787 22.5751 183.546 22.7337 181.369 22.9255C178.572 23.0503 175.809 23.5848 173.168 24.5119C170.138 25.6777 167.542 27.7516 165.735 30.4496C163.803 33.3844 162.842 37.387 163.804 40.2983Z" fill="#2F2E41"/>
<path d="M191.223 22.3177C191.033 22.2617 191.525 22.3337 191.355 22.3383C191.439 22.3333 191.524 22.3216 191.606 22.303C191.62 22.3002 191.812 22.2391 191.685 22.284C191.97 22.1985 192.225 22.0322 192.418 21.8051C192.87 21.2463 193.225 20.6153 193.467 19.9387C193.772 19.0445 194.264 18.2252 194.908 17.5343C195.091 17.3505 195.315 17.2125 195.561 17.1314C195.808 17.0503 196.07 17.0284 196.326 17.0675C196.582 17.1067 196.826 17.2057 197.037 17.3566C197.248 17.5075 197.42 17.7061 197.54 17.9361C197.783 18.8235 197.7 19.7688 197.305 20.6C197.029 21.4458 196.619 22.2415 196.09 22.9565C195.203 24.1258 193.996 25.0119 192.615 25.5068C191.016 26.0876 189.273 26.1374 187.643 25.6489C187.428 25.5595 187.243 25.4095 187.112 25.2171C186.98 25.0247 186.908 24.7982 186.903 24.5651C186.898 24.3321 186.96 24.1026 187.083 23.9046C187.206 23.7066 187.384 23.5487 187.595 23.4501L190.313 22.3376C190.456 22.274 190.61 22.2393 190.766 22.2353C190.922 22.2314 191.078 22.2583 191.224 22.3146C191.37 22.3708 191.503 22.4553 191.617 22.5632C191.73 22.6711 191.821 22.8002 191.884 22.9433C191.948 23.0864 191.982 23.2405 191.986 23.3969C191.989 23.5533 191.962 23.7089 191.906 23.8548C191.849 24.0007 191.765 24.1341 191.657 24.2472C191.549 24.3604 191.419 24.4511 191.276 24.5142L191.271 24.5165L188.554 25.629L188.506 23.4302C188.845 23.5281 189.194 23.5878 189.546 23.6081C189.922 23.6458 190.301 23.6298 190.673 23.5606C191.028 23.5139 191.378 23.4287 191.715 23.3063C191.931 23.2274 192.143 23.1376 192.35 23.0372C192.425 23.0007 192.5 22.9628 192.573 22.9236C192.568 22.9264 192.884 22.7423 192.746 22.8288C193.097 22.6041 193.427 22.3472 193.731 22.0614C193.838 21.96 193.937 21.85 194.026 21.7326C194.181 21.5423 194.324 21.3432 194.456 21.1363C194.723 20.698 194.936 20.228 195.087 19.7373C195.156 19.531 195.214 19.3213 195.262 19.109C195.275 18.9925 195.296 18.877 195.325 18.7633C195.426 18.4925 195.306 18.9215 195.422 19.0388L195.922 19.408C196.017 19.436 196.116 19.4425 196.213 19.427C196.31 19.4115 196.402 19.3744 196.482 19.3184C196.542 19.2348 196.529 19.2487 196.443 19.3599C196.344 19.4908 196.253 19.6279 196.172 19.7703C195.992 20.1056 195.83 20.4498 195.685 20.8015C195.386 21.5496 195.008 22.2636 194.558 22.9313C194.116 23.6068 193.473 24.1256 192.719 24.4138C191.965 24.702 191.14 24.7449 190.361 24.5364C190.068 24.4199 189.833 24.1931 189.706 23.9049C189.58 23.6166 189.571 23.2901 189.683 22.9957C189.802 22.7056 190.03 22.473 190.317 22.3466C190.604 22.2202 190.929 22.2099 191.223 22.3177Z" fill="#2F2E41"/>
</g>
<defs>
<clipPath id="clip0_20_162">
<rect width="685" height="456" fill="white"/>
</clipPath>
</defs>
</svg>
