<svg width="133" height="32" viewBox="0 0 133 32" fill="none" xmlns="http://www.w3.org/2000/svg">
<path d="M1.66406 29.8667V7.40269H7.8486C9.36469 7.40269 10.6774 7.56909 11.7867 7.90189C12.8961 8.23469 13.7558 8.83559 14.3659 9.70456C14.9946 10.5551 15.3089 11.7661 15.3089 13.3376C15.3089 14.2621 15.2349 15.0848 15.087 15.8059C14.9391 16.527 14.6618 17.1556 14.255 17.6918C13.8667 18.2095 13.3028 18.6439 12.5633 18.9952L15.6417 29.8667H10.511L8.04273 19.7995H6.62833V29.8667H1.66406ZM6.62833 16.943H8.015C8.71757 16.943 9.263 16.8228 9.65126 16.5824C10.0395 16.3236 10.3076 15.9631 10.4555 15.5008C10.6219 15.0201 10.7051 14.447 10.7051 13.7814C10.7051 12.8199 10.5295 12.0711 10.1782 11.535C9.8269 10.9988 9.1798 10.7307 8.23686 10.7307H6.62833V16.943ZM17.4612 29.8667V7.40269H27.5561V10.7862H22.4254V16.3606H26.3358V19.7995H22.4254V26.511H27.6116V29.8667H17.4612ZM34.9961 30.1995C33.5909 30.1995 32.4169 29.9499 31.474 29.4507C30.531 28.9515 29.8192 28.1841 29.3385 27.1488C28.8577 26.095 28.5897 24.736 28.5342 23.072L32.7774 22.4342C32.7958 23.3957 32.879 24.1722 33.027 24.7638C33.1934 25.3553 33.4153 25.7807 33.6926 26.0395C33.9883 26.2983 34.3397 26.4278 34.7465 26.4278C35.2641 26.4278 35.5969 26.2522 35.7449 25.9008C35.9113 25.5495 35.9945 25.1798 35.9945 24.7915C35.9945 23.8671 35.7726 23.0906 35.3289 22.4619C34.8852 21.8149 34.2842 21.1677 33.5262 20.5206L31.5849 18.8288C30.7344 18.1078 30.0133 17.2943 29.4217 16.3883C28.8485 15.4639 28.562 14.3268 28.562 12.9771C28.562 11.0727 29.1258 9.62136 30.2537 8.62296C31.3814 7.60606 32.9161 7.09763 34.8574 7.09763C36.0592 7.09763 37.0206 7.301 37.7417 7.70776C38.4811 8.11452 39.0358 8.65069 39.4057 9.31629C39.794 9.9634 40.0527 10.6567 40.1822 11.3963C40.3301 12.1174 40.4133 12.8107 40.4318 13.4763L36.1609 14.0032C36.1423 13.3376 36.0961 12.7645 36.0222 12.2838C35.9668 11.7846 35.8373 11.4055 35.634 11.1467C35.4305 10.8694 35.1162 10.7307 34.691 10.7307C34.2288 10.7307 33.8868 10.9248 33.6649 11.3131C33.4614 11.7014 33.3598 12.0896 33.3598 12.4779C33.3598 13.3099 33.554 13.994 33.9422 14.5302C34.3489 15.0479 34.8758 15.5933 35.523 16.1664L37.3812 17.8027C38.361 18.6347 39.1838 19.5776 39.8494 20.6315C40.5334 21.6854 40.8756 22.9888 40.8756 24.5419C40.8756 25.5958 40.6352 26.5573 40.1545 27.4262C39.6737 28.2767 38.9897 28.9515 38.1022 29.4507C37.2331 29.9499 36.1978 30.1995 34.9961 30.1995ZM42.4749 29.8667V7.40269H47.4392V29.8667H42.4749ZM49.957 29.8667V7.40269H54.9212V26.511H60.0796V29.8667H49.957ZM61.4484 29.8667V7.40269H66.4126V29.8667H61.4484ZM68.9304 29.8667V7.40269H79.0253V10.7862H73.8947V16.3606H77.8051V19.7995H73.8947V26.511H79.0808V29.8667H68.9304ZM69.5128 5.43363L72.1475 0.108826H75.836L78.5539 5.43363H75.2259L74.0056 2.13336L72.8131 5.43363H69.5128ZM80.5025 29.8667V7.40269H83.9969L88.6006 18.2187V7.40269H92.7051V29.8667H89.3494L84.7457 18.2187V29.8667H80.5025ZM101.651 30.1995C99.9495 30.1995 98.6 29.8944 97.6016 29.2843C96.6215 28.6556 95.9282 27.7867 95.5216 26.6774C95.1147 25.5495 94.9114 24.2277 94.9114 22.7115V14.6134C94.9114 13.0603 95.1147 11.7291 95.5216 10.6198C95.9282 9.49193 96.6215 8.62296 97.6016 8.01283C98.6 7.40269 99.9495 7.09763 101.651 7.09763C103.315 7.09763 104.609 7.37496 105.533 7.92963C106.476 8.4658 107.142 9.22386 107.53 10.2038C107.918 11.1837 108.112 12.3115 108.112 13.5872V15.5286H103.259V13.2822C103.259 12.8384 103.231 12.4132 103.176 12.0064C103.139 11.5997 103.01 11.2669 102.788 11.008C102.566 10.7307 102.187 10.592 101.651 10.592C101.133 10.592 100.745 10.7307 100.486 11.008C100.245 11.2854 100.088 11.6367 100.014 12.0619C99.9589 12.4687 99.9312 12.9031 99.9312 13.3654V23.9318C99.9312 24.431 99.9681 24.8933 100.042 25.3184C100.134 25.7253 100.301 26.0581 100.541 26.3168C100.8 26.5573 101.17 26.6774 101.651 26.6774C102.168 26.6774 102.538 26.5479 102.76 26.2891C102.982 26.0118 103.12 25.6604 103.176 25.2352C103.231 24.8101 103.259 24.3755 103.259 23.9318V21.5744H108.112V23.5158C108.112 24.7915 107.918 25.9377 107.53 26.9547C107.16 27.9531 106.504 28.7482 105.561 29.3398C104.636 29.913 103.333 30.1995 101.651 30.1995ZM110.039 29.8667V7.40269H115.004V29.8667H110.039ZM116.44 29.8667L120.683 7.40269H126.34L130.528 29.8667H125.952L125.203 25.1243H121.903L121.126 29.8667H116.44ZM122.347 22.1568H124.732L123.539 13.3931L122.347 22.1568Z" fill="#033C08"/>
</svg>
