<svg width="461" height="352" viewBox="0 0 461 352" fill="none" xmlns="http://www.w3.org/2000/svg">
<path d="M33.873 321.04C36.3444 321.911 38.9979 322.129 41.5779 321.673C44.1578 321.218 46.5772 320.103 48.603 318.437C53.7622 314.094 55.3801 306.941 56.6959 300.315L60.5888 280.718L52.4387 286.347C46.5772 290.394 40.584 294.572 36.5259 300.435C32.4679 306.298 30.6975 314.302 33.957 320.646" fill="#E6E6E6"/>
<path d="M35.1316 346.13C34.1058 338.634 33.0503 331.041 33.7716 323.465C34.4108 316.737 36.4576 310.166 40.6245 304.776C42.8362 301.921 45.5276 299.475 48.5774 297.548C49.3725 297.044 50.1045 298.308 49.3128 298.809C44.0356 302.154 39.9537 307.094 37.6558 312.915C35.118 319.389 34.7105 326.446 35.1477 333.324C35.4119 337.482 35.9734 341.614 36.5373 345.741C36.5818 345.927 36.554 346.124 36.4595 346.291C36.365 346.458 36.2109 346.582 36.0282 346.639C35.8419 346.69 35.6434 346.664 35.4756 346.569C35.3078 346.473 35.1844 346.315 35.1321 346.129L35.1316 346.13Z" fill="#F2F2F2"/>
<path d="M42.5151 334.102C43.5749 335.718 45.0318 337.033 46.7455 337.921C48.4592 338.808 50.3719 339.238 52.2992 339.169C57.2534 338.933 61.3819 335.466 65.0981 332.174L76.092 322.438L68.8161 322.089C63.5836 321.838 58.2161 321.602 53.2323 323.222C48.2484 324.842 43.6522 328.736 42.741 333.91" fill="#E6E6E6"/>
<path d="M32.2318 350.439C37.1705 341.674 42.8984 331.934 53.1342 328.82C55.98 327.958 58.964 327.649 61.9255 327.91C62.859 327.991 62.6259 329.434 61.6943 329.353C56.73 328.94 51.7752 330.255 47.6642 333.076C43.7081 335.777 40.6278 339.532 38.021 343.513C36.424 345.953 34.9936 348.495 33.5631 351.034C33.1061 351.846 31.7694 351.26 32.2318 350.439Z" fill="#F2F2F2"/>
<path d="M179.309 172.821C178.995 172.974 178.694 173.151 178.408 173.351L149.31 161.943L148.157 154.419L136.608 154.681L137.36 168.199C137.42 169.291 137.833 170.334 138.535 171.171C139.237 172.008 140.19 172.594 141.253 172.842L175.876 180.898C176.299 182.176 177.1 183.295 178.172 184.105C179.245 184.916 180.538 185.38 181.879 185.436C183.221 185.491 184.548 185.136 185.683 184.417C186.819 183.697 187.709 182.649 188.235 181.41C188.762 180.171 188.9 178.8 188.631 177.481C188.362 176.161 187.699 174.955 186.73 174.023C185.761 173.09 184.532 172.476 183.206 172.261C181.881 172.047 180.521 172.242 179.309 172.821Z" fill="#9F616A"/>
<path d="M135.621 342.805L143.344 342.804L147.018 312.926L135.62 312.927L135.621 342.805Z" fill="#9F616A"/>
<path d="M133.651 340.276L148.86 340.275H148.861C151.432 340.275 153.897 341.299 155.715 343.122C157.532 344.946 158.553 347.418 158.554 349.996V350.312L133.651 350.313L133.651 340.276Z" fill="#2F2E41"/>
<path d="M98.4537 342.805L106.177 342.804L109.851 312.926L98.4524 312.927L98.4537 342.805Z" fill="#9F616A"/>
<path d="M96.4834 340.276L111.693 340.275H111.694C114.264 340.275 116.73 341.299 118.547 343.122C120.365 344.946 121.386 347.418 121.386 349.996V350.312L96.4839 350.313L96.4834 340.276Z" fill="#2F2E41"/>
<path d="M102.932 115.009C100.732 105.901 98.8688 95.6273 103.017 87.2381C105.895 81.4173 116.542 79.4571 122.646 81.5541C128.749 83.6511 133.162 89.3405 135.103 95.5437C137.044 101.747 136.818 108.431 135.972 114.88C124.747 114.664 113.522 114.447 102.932 115.009Z" fill="#2F2E41"/>
<path d="M121.875 115.007C129.104 115.007 134.964 109.129 134.964 101.878C134.964 94.6276 129.104 88.7497 121.875 88.7497C114.645 88.7497 108.785 94.6276 108.785 101.878C108.785 109.129 114.645 115.007 121.875 115.007Z" fill="#9F616A"/>
<path d="M105.873 99.1739C105.831 96.9643 106.233 94.7688 107.054 92.718C107.875 90.6671 109.098 88.8027 110.652 87.2356C112.206 85.6684 114.057 84.4304 116.098 83.5952C118.138 82.7601 120.324 82.3447 122.527 82.3738C124.731 82.403 126.906 82.876 128.923 83.7648C130.941 84.6537 132.759 85.9401 134.271 87.5479C135.783 89.1556 136.957 91.0517 137.724 93.1235C138.491 95.1954 138.835 97.4007 138.735 99.6085C127.531 99.6323 116.327 99.6562 105.873 99.1739Z" fill="#2F2E41"/>
<path d="M111.011 163.443L105.537 172.594C105.537 172.594 90.5446 200.796 91.4363 224.173L94.7541 253.29L91.113 260.435L93.5502 273.007L89.0239 282.012L97.206 325.489L97.5542 334.917H110.785L110.089 325.314L115.659 282.959L125.06 237.736L129.934 276.774L128.194 286.552L130.457 294.758L133.59 320.076L133.938 332.298L145.951 333.695L150.477 288.472L153.088 266.895L139.094 171.225L111.011 163.443Z" fill="#2F2E41"/>
<path d="M109.275 119.257L101.125 122.729L96.5474 141.729L106.185 166.485L102.582 178.854C113.489 197.566 126.988 200.284 142.873 188.285C139.511 178.817 139.997 169.082 143.347 159.149C143.347 159.149 151.703 151.344 145.866 141.197L140.298 126.039L133.404 122.581L109.275 119.257Z" fill="#CBCBCB"/>
<path d="M138.692 129.343L140.542 125.897C140.542 125.897 145.422 126.633 147.414 132.524C149.407 138.416 149.925 162.215 149.925 162.215L139.485 162.745L138.692 129.343Z" fill="#CBCBCB"/>
<path d="M97.7925 210.12C98.6783 209.678 99.4566 209.046 100.073 208.27C100.689 207.493 101.128 206.591 101.358 205.626C101.589 204.661 101.606 203.657 101.408 202.685C101.21 201.713 100.802 200.796 100.213 199.999L105.273 150.375H94.3369L90.3153 198.83C89.0461 199.912 88.2167 201.423 87.9843 203.078C87.7519 204.732 88.1326 206.414 89.0543 207.806C89.9759 209.197 91.3745 210.202 92.9851 210.628C94.5956 211.054 96.3061 210.874 97.7925 210.12Z" fill="#9F616A"/>
<path d="M107.785 128.341L103.953 122.907C103.953 122.907 97.2128 118.324 93.7767 128.871C90.3407 139.419 90.8694 158.96 90.8694 158.96L103.953 164.394L107.785 128.341Z" fill="#CBCBCB"/>
<path d="M336.269 47.3871H275.793V81.5057H336.269V47.3871Z" fill="#F1F1F1"/>
<path d="M461 20.8503H400.524V54.969H461V20.8503Z" fill="#F1F1F1"/>
<path d="M442.101 109.306H381.626V143.425H442.101V109.306Z" fill="#F1F1F1"/>
<path d="M419.423 0H358.947V34.1187H419.423V0Z" fill="#E5E5E5"/>
<path d="M421.313 62.9063H321.78V119.06H421.313V62.9063Z" fill="#033C08"/>
<path d="M220.151 153.887H324.549V108.895H326.18V155.524H220.151V153.887Z" fill="#3F3D56"/>
<path d="M325.365 125.449C330.319 125.449 334.336 121.42 334.336 116.45C334.336 111.481 330.319 107.452 325.365 107.452C320.41 107.452 316.393 111.481 316.393 116.45C316.393 121.42 320.41 125.449 325.365 125.449Z" fill="#3F3D56"/>
<path d="M245.798 170.009H196.861V171.645H245.798V170.009Z" fill="#033C08"/>
<path d="M245.798 174.917H196.861V176.553H245.798V174.917Z" fill="#033C08"/>
<path d="M245.798 179.825H196.861V181.461H245.798V179.825Z" fill="#033C08"/>
<path d="M211.035 351.296H0.629954C0.46288 351.296 0.302648 351.23 0.184509 351.111C0.0663695 350.993 0 350.832 0 350.664C0 350.497 0.0663695 350.336 0.184509 350.218C0.302648 350.099 0.46288 350.032 0.629954 350.032H211.035C211.202 350.032 211.362 350.099 211.48 350.218C211.598 350.336 211.665 350.497 211.665 350.664C211.665 350.832 211.598 350.993 211.48 351.111C211.362 351.23 211.202 351.296 211.035 351.296Z" fill="#CBCBCB"/>
<path d="M195.912 339.673C194.793 340.068 193.592 340.167 192.425 339.96C191.257 339.754 190.162 339.249 189.245 338.495C186.91 336.53 186.177 333.291 185.582 330.292L183.82 321.422L187.509 323.97C190.162 325.802 192.874 327.693 194.711 330.347C196.548 333.001 197.35 336.623 195.874 339.495" fill="#E6E6E6"/>
<path d="M195.597 350.412C196.079 347.691 196.245 344.924 196.092 342.165C195.922 339.706 195.057 337.347 193.598 335.364C192.793 334.325 191.814 333.435 190.704 332.734C190.415 332.551 190.149 333.011 190.437 333.193C192.357 334.41 193.842 336.207 194.678 338.326C195.521 340.704 195.832 343.24 195.59 345.752C195.493 347.265 195.29 348.768 195.084 350.27C195.067 350.338 195.077 350.41 195.112 350.471C195.146 350.532 195.202 350.577 195.269 350.598C195.337 350.616 195.409 350.607 195.47 350.572C195.531 350.537 195.576 350.48 195.595 350.412L195.597 350.412Z" fill="#F2F2F2"/>
</svg>
